<svg xmlns="http://www.w3.org/2000/svg" xmlns:xlink="http://www.w3.org/1999/xlink" width="500" zoomAndPan="magnify" viewBox="0 0 375 374.999991" height="500" preserveAspectRatio="xMidYMid meet" version="1.2"><defs><clipPath id="d7bea5f8aa"><path d="M 375 22.5 L 375 352.5 C 375 358.46875 372.628906 364.191406 368.410156 368.410156 C 364.191406 372.628906 358.46875 375 352.5 375 L 22.5 375 C 16.53125 375 10.808594 372.628906 6.589844 368.410156 C 2.371094 364.191406 0 358.46875 0 352.5 L 0 22.5 C 0 10.074219 10.074219 0 22.5 0 L 352.5 0 C 358.46875 0 364.191406 2.371094 368.410156 6.589844 C 372.628906 10.808594 375 16.53125 375 22.5 Z M 375 22.5 "/></clipPath></defs><g id="eb4870489c"><g clip-rule="nonzero" clip-path="url(#d7bea5f8aa)"><rect x="0" width="375" y="0" height="374.999991" style="fill:#1e648b;fill-opacity:1;stroke:none;"/></g><g style="fill:#ffffff;fill-opacity:1;"><g transform="translate(50.82422, 265.568458)"><path style="stroke:none" d="M 18.046875 0 L 18.046875 -188.515625 L 56.015625 -188.515625 L 56.015625 -34.203125 L 117.421875 -34.203125 L 117.421875 0 Z M 18.046875 0 "/></g></g><g style="fill:#ffffff;fill-opacity:1;"><g transform="translate(173.36004, 265.568458)"><path style="stroke:none" d="M 88.609375 -144.34375 C 98.660156 -144.34375 106.875 -142.503906 113.25 -138.828125 C 119.625 -135.148438 124.5625 -130.210938 128.0625 -124.015625 C 131.5625 -117.828125 133.984375 -111.050781 135.328125 -103.6875 C 136.671875 -96.320312 137.34375 -88.867188 137.34375 -81.328125 L 137.34375 0 L 100.1875 0 L 100.1875 -85.640625 C 100.1875 -93.535156 97.851562 -99.726562 93.1875 -104.21875 C 88.519531 -108.707031 83.039062 -110.953125 76.75 -110.953125 C 69.03125 -110.953125 62.925781 -108.4375 58.4375 -103.40625 C 53.945312 -98.382812 51.703125 -92.101562 51.703125 -84.5625 L 51.703125 0 L 14.546875 0 L 14.546875 -140.84375 L 50.90625 -140.84375 L 50.90625 -124.421875 C 53.957031 -129.265625 58.710938 -133.796875 65.171875 -138.015625 C 71.640625 -142.234375 79.453125 -144.34375 88.609375 -144.34375 Z M 88.609375 -144.34375 "/></g></g><g style="fill:#ffffff;fill-opacity:1;"><g transform="translate(122.021152, 342.703571)"><path style="stroke:none" d="M 3.390625 0 L 3.390625 -35.453125 L 21.625 -35.453125 L 21.625 -29.03125 L 10.53125 -29.03125 L 10.53125 -21.125 L 20.0625 -21.125 L 20.0625 -14.796875 L 10.53125 -14.796875 L 10.53125 -6.375 L 22.09375 -6.375 L 22.09375 0 Z M 3.390625 0 "/></g></g><g style="fill:#ffffff;fill-opacity:1;"><g transform="translate(146.388677, 342.703571)"><path style="stroke:none" d="M 3.390625 0 L 3.390625 -35.453125 L 10.53125 -35.453125 L 10.53125 -6.4375 L 22.09375 -6.4375 L 22.09375 0 Z M 3.390625 0 "/></g></g><g style="fill:#ffffff;fill-opacity:1;"><g transform="translate(169.439033, 342.703571)"><path style="stroke:none" d="M 3.390625 0 L 3.390625 -35.453125 L 10.53125 -35.453125 L 10.53125 -6.4375 L 22.09375 -6.4375 L 22.09375 0 Z M 3.390625 0 "/></g></g><g style="fill:#ffffff;fill-opacity:1;"><g transform="translate(192.489389, 342.703571)"><path style="stroke:none" d="M 3.390625 0 L 3.390625 -35.453125 L 21.625 -35.453125 L 21.625 -29.03125 L 10.53125 -29.03125 L 10.53125 -21.125 L 20.0625 -21.125 L 20.0625 -14.796875 L 10.53125 -14.796875 L 10.53125 -6.375 L 22.09375 -6.375 L 22.09375 0 Z M 3.390625 0 "/></g></g><g style="fill:#ffffff;fill-opacity:1;"><g transform="translate(216.856914, 342.703571)"><path style="stroke:none" d="M 25.6875 0 L 10.390625 -24.015625 L 10.390625 0 L 3.34375 0 L 3.34375 -35.453125 L 10.59375 -35.453125 L 25.734375 -11.25 L 25.734375 -35.453125 L 32.78125 -35.453125 L 32.78125 0 Z M 25.6875 0 "/></g></g><g style="fill:#ffffff;fill-opacity:1;"><g transform="translate(16.056258, 46.499997)"><path style="stroke:none" d="M 1.578125 0 L 1.578125 -1.890625 C 1.578125 -3.140625 1.859375 -4.3125 2.421875 -5.40625 C 2.992188 -6.5 3.71875 -7.535156 4.59375 -8.515625 C 5.476562 -9.492188 6.414062 -10.421875 7.40625 -11.296875 C 8.394531 -12.179688 9.328125 -13.035156 10.203125 -13.859375 C 11.085938 -14.691406 11.8125 -15.507812 12.375 -16.3125 C 12.9375 -17.113281 13.21875 -17.914062 13.21875 -18.71875 C 13.21875 -19.695312 12.914062 -20.484375 12.3125 -21.078125 C 11.71875 -21.671875 10.890625 -21.96875 9.828125 -21.96875 C 8.753906 -21.96875 7.925781 -21.65625 7.34375 -21.03125 C 6.769531 -20.414062 6.359375 -19.695312 6.109375 -18.875 L 1.46875 -20.234375 C 1.613281 -20.878906 1.875 -21.582031 2.25 -22.34375 C 2.632812 -23.113281 3.164062 -23.835938 3.84375 -24.515625 C 4.519531 -25.203125 5.363281 -25.765625 6.375 -26.203125 C 7.394531 -26.640625 8.625 -26.859375 10.0625 -26.859375 C 11.769531 -26.859375 13.265625 -26.53125 14.546875 -25.875 C 15.828125 -25.226562 16.828125 -24.3125 17.546875 -23.125 C 18.273438 -21.945312 18.640625 -20.554688 18.640625 -18.953125 C 18.640625 -17.765625 18.398438 -16.675781 17.921875 -15.6875 C 17.453125 -14.695312 16.832031 -13.78125 16.0625 -12.9375 C 15.300781 -12.09375 14.476562 -11.304688 13.59375 -10.578125 C 12.71875 -9.859375 11.878906 -9.164062 11.078125 -8.5 C 10.273438 -7.832031 9.578125 -7.179688 8.984375 -6.546875 C 8.390625 -5.921875 8.019531 -5.285156 7.875 -4.640625 L 18.953125 -4.640625 L 18.953125 0 Z M 1.578125 0 "/></g></g><g style="fill:#ffffff;fill-opacity:1;"><g transform="translate(36.432543, 46.499997)"><path style="stroke:none" d="M 9.71875 -12.734375 C 8.9375 -12.734375 8.285156 -12.566406 7.765625 -12.234375 C 7.253906 -11.910156 6.863281 -11.597656 6.59375 -11.296875 L 2.1875 -12.0625 L 2.75 -26.375 L 17.625 -26.375 L 17.625 -21.703125 L 7.453125 -21.703125 L 7.234375 -16.3125 C 7.804688 -16.632812 8.40625 -16.863281 9.03125 -17 C 9.664062 -17.144531 10.320312 -17.21875 11 -17.21875 C 12.476562 -17.21875 13.84375 -16.867188 15.09375 -16.171875 C 16.351562 -15.484375 17.359375 -14.519531 18.109375 -13.28125 C 18.867188 -12.039062 19.25 -10.601562 19.25 -8.96875 C 19.25 -7.132812 18.863281 -5.503906 18.09375 -4.078125 C 17.332031 -2.660156 16.28125 -1.546875 14.9375 -0.734375 C 13.59375 0.078125 12.039062 0.484375 10.28125 0.484375 C 8.394531 0.484375 6.832031 0.140625 5.59375 -0.546875 C 4.351562 -1.234375 3.390625 -2.078125 2.703125 -3.078125 C 2.023438 -4.085938 1.5625 -5.054688 1.3125 -5.984375 L 5.921875 -7.421875 C 6.171875 -6.515625 6.640625 -5.78125 7.328125 -5.21875 C 8.015625 -4.65625 8.910156 -4.375 10.015625 -4.375 C 11.171875 -4.375 12.109375 -4.769531 12.828125 -5.5625 C 13.546875 -6.351562 13.90625 -7.347656 13.90625 -8.546875 C 13.90625 -9.253906 13.753906 -9.921875 13.453125 -10.546875 C 13.148438 -11.171875 12.691406 -11.691406 12.078125 -12.109375 C 11.460938 -12.523438 10.675781 -12.734375 9.71875 -12.734375 Z M 9.71875 -12.734375 "/></g></g></g></svg>